<?xml version="1.0" encoding="UTF-8" standalone="no"?>
<svg xmlns:rdf="http://www.w3.org/1999/02/22-rdf-syntax-ns#" xmlns="http://www.w3.org/2000/svg" height="868.9" width="634.86" version="1.1" xmlns:cc="http://creativecommons.org/ns#" xmlns:dc="http://purl.org/dc/elements/1.1/" viewBox="0 0 634.85694 868.898">
<g transform="matrix(4 0 0 4 -.000016127 0)">
<rect height="10" width="10" y="42.289" x="62.328" fill="#ccc"/>
<path fill="#666" d="m77.328 0-21 21v4l12 12h5v-5l-9-9 15-15 15 15-9 9v5h5l12-12v-4l-21-21h-4zm-16 41v14h36v-14h-36zm4 2h3v9h-3v-9z"/>
<path d="m135.47 193.98a79.357 79.357 0 0 1 -112.23 0 79.357 79.357 0 0 1 -0.000002 -112.23 79.357 79.357 0 0 1 112.23 0.000012 79.357 79.357 0 0 1 0.00001 112.23z" fill="#000080"/>
<path d="m97.107 214.6c-1.0897 0.292-30.094-46.626-31.148-47.03-1.0533-0.40431-54.002 15.055-54.617 14.109-0.61446-0.94618 35.044-43.03 35.103-44.156 0.05905-1.1266-31.006-46.707-30.296-47.584 0.70999-0.87677 51.753 20.032 52.843 19.74 1.0897-0.292 34.84-43.921 35.893-43.517 1.0533 0.40431-3.0594 55.41-2.4449 56.356 0.61446 0.94618 52.538 19.562 52.479 20.689-0.059 1.1266-53.644 14.213-54.354 15.09-0.71 0.87677-2.3696 56.011-3.4593 56.303z" transform="matrix(.81313 .27961 -.27961 .81313 56.091 1.8102)" stroke="#7c7cff" stroke-width="7.5911" fill="none"/>
</g>
</svg>
