<?xml version="1.0" encoding="UTF-8" standalone="no"?>
<svg xmlns:rdf="http://www.w3.org/1999/02/22-rdf-syntax-ns#" xmlns="http://www.w3.org/2000/svg" height="868.9" viewBox="0 0 634.85694 868.898" width="634.86" version="1.1" xmlns:cc="http://creativecommons.org/ns#" xmlns:dc="http://purl.org/dc/elements/1.1/">
<g transform="scale(4)">
<rect height="10" width="10" y="42.289" x="62.328" fill="#ccc"/>
<path d="m158.71 137.87a79.357 79.357 0 0 1 -79.353 79.35 79.357 79.357 0 0 1 -79.357 -79.35 79.357 79.357 0 0 1 79.357 -79.36 79.357 79.357 0 0 1 79.353 79.36z" fill="#008000"/>
<path fill="#666" d="m77.328 0-21 21v4l12 12h5v-5l-9-9 15-15 15 15-9 9v5h5l12-12v-4l-21-21h-4zm-16 41v14h36v-14h-36zm4 2h3v9h-3v-9z"/>
<path d="m39.666 75.861-3.9453 2.7285-4.1582-2.3926 0.39062 4.7812-4.1504 2.4043 4.3359 2.0527 0.0078 4.7969 3.9453-2.7285 4.1562 2.3926-0.39062-4.7812 4.1523-2.4043-4.3359-2.0527-0.0078-4.7969zm68.459 10.553-2.1367 6.5469-6.8301 0.88086 4.6035 5.123-2.6543 6.3574 6.7383-1.4238 4.1797 5.4746 2.1348-6.5469 6.832-0.88086-4.6035-5.125 2.6543-6.3555-6.7402 1.4238-4.1777-5.4746zm-39.375 16.736-5.6641 3.918-5.9707-3.4356 0.56055 6.8652-5.959 3.4531 6.2246 2.9473 0.0098 6.8867 5.666-3.918 5.9688 3.4355-0.56055-6.8652 5.9609-3.4531-6.2266-2.9453-0.0098-6.8887zm34.107 32.988 0.52539 13.102-11.609 6.0957 11.609 6.0957-0.52539 13.102 11.082-7.0059 11.084 7.0059-0.52539-13.102 11.609-6.0957-11.609-6.0957 0.52539-13.102-11.084 7.0059-11.082-7.0059zm-60.133 2.2246-12.303 13.916-17.848-5.1406 5.9004 17.611-9.7051 9.3496a79.357 79.357 0 0 0 2.7793 4.8477l11.752 2.3848 4.0742 16.43a79.357 79.357 0 0 0 1.0039 0.91016l11.695-13.229 17.848 5.1406-5.9004-17.611 13.377-12.887-18.203-3.6953-4.4707-18.027z" fill="#7cff7c"/>
</g>
</svg>
