<?xml version="1.0" encoding="UTF-8" standalone="no"?>
<svg xmlns:rdf="http://www.w3.org/1999/02/22-rdf-syntax-ns#" xmlns="http://www.w3.org/2000/svg" height="868.9" width="634.86" version="1.1" xmlns:cc="http://creativecommons.org/ns#" xmlns:dc="http://purl.org/dc/elements/1.1/" viewBox="0 0 634.85694 868.898">
<g transform="matrix(4 0 0 4 -.000016127 0)">
<rect height="10" width="10" y="42.289" x="62.328" fill="#ccc"/>
<path fill="#666" d="m77.328 0-21 21v4l12 12h5v-5l-9-9 15-15 15 15-9 9v5h5l12-12v-4l-21-21h-4zm-16 41v14h36v-14h-36zm4 2h3v9h-3v-9z"/>
<path d="m135.47 193.98a79.357 79.357 0 0 1 -112.23 0 79.357 79.357 0 0 1 -0.000002 -112.23 79.357 79.357 0 0 1 112.23 0.000012 79.357 79.357 0 0 1 0.00001 112.23z" fill="#800055"/>
<path d="m82.271 89.087-3.3778 1.3735 7.1243 17.547-2.5502 8.9555c-0.15786-0.52093-0.35093-1.0298-0.60136-1.5152-3.7836-2.9522-7.3605-6.2001-11.265-8.9779-0.17176-0.0316-0.35268-0.0211-0.51725 0.0393-1.125 0.80972-1.152 2.3479-1.8147 3.4737-1.3876 3.4516-3.028 6.8455-4.2083 10.379 0.05468 0.27839 0.11196 0.55652 0.17334 0.83337l-6.437-6.6449-1.9908-18.545-3.6208 0.3917 1.4879 13.901-6.0184-6.2064-2.6167 2.5319 6.1818 6.3772-14.143-1.9615-0.50044 3.6074 18.762 2.6051 6.5056 6.7102c-0.54684-0.13124-1.0998-0.23052-1.6585-0.26482-4.3932 1.714-8.8464 3.3032-13.199 5.0974-0.83242 0.79956-0.06961 1.9676 0.62371 2.5586 2.5801 3.3874 5.0834 6.8556 7.7877 10.132 0.32148 0.13029 0.64442 0.24814 0.97188 0.3599l-8.9796 2.2547-17.051-7.5518-1.4761 3.3337 12.782 5.66-8.3863 2.1084 0.88927 3.5344 8.61-2.1652-8.7669 11.267 2.8724 2.2366 11.636-14.947 9.0471-2.2726c-0.3821 0.40663-0.73697 0.83221-1.0423 1.3002-0.67295 4.7262-1.6967 9.4257-2.128 14.174 0.45945 1.0531 1.788 0.71243 2.6654 0.53077 4.1947-0.56935 8.4366-0.91305 12.595-1.7228 0.31621-0.26879 0.62465-0.54399 0.92813-0.82663l-2.5492 8.9519-15.299 11.161 2.1474 2.9469 11.53-8.414-2.4311 8.5371 3.5032 0.99747 2.3678-8.3148 5.2623 12.956 3.3778-1.3735-7.0175-17.28 2.5349-8.9018c0.13874 0.41917 0.30045 0.83051 0.5014 1.2254 3.7551 2.9346 7.3122 6.1458 11.182 8.921 1.1899 0.149 1.5551-1.2277 1.8274-2.1054 1.6099-3.9038 3.4302-7.7397 4.7962-11.73-0.0782-0.40582-0.16338-0.81106-0.25588-1.2136l6.4955 6.703 2.0161 18.834 3.6274-0.38567-1.5239-14.197 6.1818 6.3772 2.6177-2.5357-6.0174-6.21 13.847 1.9228 0.50153-3.6112-18.472-2.5638-6.4305-6.6387c0.42593 0.0888 0.85489 0.15817 1.2875 0.18388 4.3934-1.714 8.8428-3.3104 13.196-5.1026 0.8324-0.79951 0.0736-1.9665-0.61989-2.5575-2.5772-3.3878-5.0867-6.8487-7.7841-10.131-0.43687-0.18139-0.88191-0.33827-1.331-0.48272l9.0734-2.2777 17.316 7.6689 1.475-3.3299-13.05-5.782 8.6099-2.1651-0.88647-3.5295-8.3852 2.1048 8.5879-11.032-2.8789-2.2426-11.454 14.716-8.9796 2.2548c0.28679-0.32293 0.55395-0.66159 0.79315-1.0227 0.67586-4.7201 1.6801-9.41 2.1341-14.151-0.46224-1.0957-1.8376-0.73344-2.7312-0.53307-4.137 0.51481-8.3128 0.94242-12.42 1.6483-0.27466 0.21101-0.53856 0.43203-0.79788 0.66047l2.5425-8.9284 15.068-10.991-2.1475-2.9469-11.298 8.2399 2.3678-8.3148-3.5032-0.99748-2.4311 8.5371-5.368-13.226zm14.98 31.738c-0.37661 2.5729-0.76007 5.1454-1.144 7.7174-1.5202 1.5168-3.1156 2.9757-4.608 4.4993-0.0321 0.0832-0.0575 0.16327-0.0741 0.24434l-2.3318 0.58461-7.1674 1.8043 2.0246-7.1098 0.65668-2.306c0.46135-0.0835 0.87952-0.37514 1.109-0.82078 1.2529-1.2748 2.5263-2.5804 3.9035-3.7002 1.2432-0.25342 2.5372-0.22123 3.7918-0.46746 1.2794-0.14806 2.56-0.29765 3.8394-0.44563zm-24.196-6.8747c0.48616 0.3852 0.97195 0.77257 1.4582 1.1578 1.5488 1.2327 3.1025 2.4588 4.6411 3.7026 0.56638 2.0848 1.016 4.2187 1.616 6.2843 0.10093 0.0909 0.20597 0.16316 0.3169 0.22725l-0.63919 2.2446-2.052 7.2059-5.287-5.4545-1.6702-1.7243c0.11525-1.2676-0.6427-2.4025-0.7567-3.6501-0.25295-1.2461-1.0919-2.6118-0.3327-3.8281 0.99025-2.0088 1.7751-4.1206 2.7056-6.1653zm-4.23 16.18 1.6702 1.7242 5.2129 5.3796-7.3674 1.851-2.3367 0.58731c-0.27079-0.33524-0.67836-0.54475-1.1359-0.4977-1.7495-0.44362-3.5371-0.91318-5.2365-1.5242-0.82952-0.86947-1.3808-1.9732-2.1891-2.8882l-2.4656-3.3155c2.4264-0.96188 4.8429-1.9109 7.2832-2.8372 2.113 0.52631 4.1981 1.3329 6.3407 1.681 0.07634-0.0511 0.1492-0.10659 0.22403-0.16027zm23.424 6.7033c0.27437 0.44814 0.73576 0.76208 1.3065 0.69973 1.7332 0.39967 3.4576 0.93957 5.1375 1.4785 0.87894 0.85557 1.4062 2.0045 2.2346 2.9178 0.81957 1.1053 1.6359 2.2097 2.458 3.3133-2.4139 0.95688-4.8279 1.917-7.2452 2.8647-2.1119-0.54083-4.2101-1.2891-6.3395-1.7433-0.0402 0.015-0.0765 0.0362-0.11496 0.0542l-1.6795-1.7351-5.2906-5.4556 7.2689-1.8252 2.2655-0.57026zm-15.553 3.9087-2.1088 7.4055-0.65777 2.3099c-0.05837-0.008-0.11624-0.022-0.17158-0.0381-1.132 0.51798-1.7299 1.7199-2.739 2.4224-0.95731 0.82965-1.7041 2.2291-3.1222 2.2386-2.2603 0.24618-4.5184 0.51022-6.7808 0.78193 0.3833-2.5841 0.7489-5.1691 1.1692-7.7477 1.5187-1.5448 3.1837-2.9762 4.6327-4.5712 0.02153-0.12003 0.02683-0.23666 0.02599-0.35347l2.283-0.57361 7.4699-1.8757zm3.4758 1.0935 5.2158 5.3845 1.6224 1.6732c-0.26054 0.48763-0.2095 1.1057 0.08096 1.5952 0.49481 1.7406 1.0326 3.5188 1.253 5.3012-1.0662 2.2872-2.0044 4.6423-3.0303 6.956-2.0321-1.6189-4.0805-3.2208-6.1075-4.8462-0.60373-2.1052-0.9468-4.3177-1.7027-6.3587-0.02669-0.017-0.05692-0.0244-0.08408-0.0403l0.67086-2.3559 2.0815-7.3095z" fill="#ff7cd3"/>
</g>
</svg>
