<?xml version="1.0" encoding="UTF-8" standalone="no"?>
<svg xmlns:rdf="http://www.w3.org/1999/02/22-rdf-syntax-ns#" xmlns="http://www.w3.org/2000/svg" height="217.22" viewBox="0 0 158.71425 217.2245" width="158.71" version="1.1" xmlns:cc="http://creativecommons.org/ns#" xmlns:dc="http://purl.org/dc/elements/1.1/">
<g>
<rect height="10" width="10" y="42.289" x="62.328" fill="#ccc"/>
<path d="m158.71 137.87a79.357 79.357 0 0 1 -79.353 79.35 79.357 79.357 0 0 1 -79.357 -79.35 79.357 79.357 0 0 1 79.357 -79.36 79.357 79.357 0 0 1 79.353 79.36z" fill="#800000"/>
<path d="m77.328 0-21 21v4l12 12h5v-5l-9-9 15-15 15 15-9 9v5h5l12-12v-4l-21-21h-4zm-16 41v14h36v-14h-36zm4 2h3v9h-3v-9z" fill="#666"/>
<path d="m0.15625 134.73a79.357 79.357 0 0 0 -0.15625 3.14 79.357 79.357 0 0 0 6.5508 31.34h145.69a79.357 79.357 0 0 0 6.47 -31.34 79.357 79.357 0 0 0 -0.11 -3.14h-158.44zm10.754 43.1a79.357 79.357 0 0 0 13.576 17.24h109.84a79.357 79.357 0 0 0 13.49 -17.24h-136.91zm18.402 21.55a79.357 79.357 0 0 0 13.022 8.62h74.046a79.357 79.357 0 0 0 13.04 -8.62h-100.11zm17.479 10.78a79.357 79.357 0 0 0 12.205 4.31h40.981a79.357 79.357 0 0 0 11.873 -4.31h-65.059z" fill="#ff7c7c"/>
</g>
</svg>
