<?xml version="1.0" encoding="UTF-8" standalone="no"?>
<svg xmlns:rdf="http://www.w3.org/1999/02/22-rdf-syntax-ns#" xmlns="http://www.w3.org/2000/svg" height="868.9" width="634.86" version="1.1" xmlns:cc="http://creativecommons.org/ns#" xmlns:dc="http://purl.org/dc/elements/1.1/" viewBox="0 0 634.85694 868.898">
<g transform="matrix(4 0 0 4 -.000016127 0)">
<rect height="10" width="10" y="42.289" x="62.328" fill="#ccc"/>
<path fill="#666" d="m77.328 0-21 21v4l12 12h5v-5l-9-9 15-15 15 15-9 9v5h5l12-12v-4l-21-21h-4zm-16 41v14h36v-14h-36zm4 2h3v9h-3v-9z"/>
<path d="m135.47 193.98a79.357 79.357 0 0 1 -112.23 0 79.357 79.357 0 0 1 -0.000002 -112.23 79.357 79.357 0 0 1 112.23 0.000012 79.357 79.357 0 0 1 0.00001 112.23z" fill="#550080"/>
<path d="m77.391 72.26c-28.639-0.414-54.271 17.881-62.568 50.79-11.323 44.91 30.044 85.71 75.029 73.99 61.388-15.99 47.438-109.06-15.921-106.28-56.994 2.5025-56.574 90.826 0.43164 90.826 46.369 0 50.429-71.507 4.1934-73.852-30.351-1.5392-42.163 41.532-14.799 53.961 21.907 9.9501 42.833-20.471 22.814-33.166-13.107-8.3125-28.822 5.6393-18.254 16.207 5.128 5.128 9.3016 1.8751 5.0215-3.9141-5.1654-6.9866 3.7985-11.627 10.906-5.6465 13.35 11.233-6.8248 29.219-21.461 19.133-22.142-15.259 1.0033-48.811 25.83-37.445 30.206 13.829 16.997 60.123-16.701 58.533-49.43-2.3319-45.153-78.311 4.4082-78.311 53.573 0 64.977 78.085 13.68 93.666-57.321 17.42-95.667-58.84-49.891-99.215 49.55-43.7 129.56 27.775 93.33 83.375-5.7382 8.8074-3.221 15.301 2.6855 6.9277 18.983-26.911 14.063-70.47-10.223-90.502-15.43-12.726-32.442-18.845-48.509-19.076z" fill="#d37cff"/>
</g>
</svg>
