<?xml version="1.0" encoding="UTF-8" standalone="no"?>
<svg xmlns:rdf="http://www.w3.org/1999/02/22-rdf-syntax-ns#" xmlns="http://www.w3.org/2000/svg" height="868.9" width="634.86" version="1.1" xmlns:cc="http://creativecommons.org/ns#" xmlns:dc="http://purl.org/dc/elements/1.1/" viewBox="0 0 634.85694 868.89843">
<g transform="scale(4)">
<rect height="10" width="10" y="42.289" x="62.328" fill="#ccc"/>
<path d="m158.71 137.87a79.357 79.357 0 0 1 -79.353 79.35 79.357 79.357 0 0 1 -79.357 -79.35 79.357 79.357 0 0 1 79.357 -79.36 79.357 79.357 0 0 1 79.353 79.36z" fill="#005580"/>
<path fill="#666" d="m77.328 0-21 21v4l12 12h5v-5l-9-9 15-15 15 15-9 9v5h5l12-12v-4l-21-21h-4zm-16 41v14h36v-14h-36zm4 2h3v9h-3v-9z"/>
<path d="m83.037 70.422c-6.106 0.0032-12.215 0.19192-18.312 0.23633-0.25378 8.3747-0.25421 16.76-0.04102 25.145 9.7553 0.53802 19.54 0.10031 29.295 0.0293 0.24363-8.3747 0.2542-16.77 0.04102-25.145-3.6582-0.20175-7.3188-0.2673-10.982-0.26562zm6.9688 28.504c-11.161-0.033-22.323 0.102-33.485 0.012v2.0215c14.871 0.25378 29.765-0.032 44.646 0.0898v-2.0176c-3.722-0.064-7.444-0.095-11.164-0.106zm3.6074 4.957c-9.4 0.071-18.809 0.0993-28.219 0.21094-10.06 7.319-7.604 26.477 3.9785 31.197 6.578 0.53802 13.218 0.43499 19.816 0.0898 10.659-6.3242 12.189-22.311 4.4238-31.498zm-22.74 4.4473c4.1751-0.17363 4.0949 6.3444 1.6367 8.9824-5.8775 3.5834-8.4648-5.9078-4.4043-8.1309 1.077-0.55832 1.9944-0.81942 2.7676-0.85156zm17.258 0c4.1751-0.17363 4.0929 6.3444 1.6348 8.9824-5.8775 3.5834-8.4648-5.9078-4.4043-8.1309 1.077-0.55832 1.9964-0.81942 2.7695-0.85156zm0.97461 17.885c-3.4514 7.3901-15.997 7.3802-19.52 0.041 6.111 4.0605 13.287 3.2074 19.52-0.041zm-6.4961 12.162c-5.4124-0.0478-10.857 0.29551-16.23 0.4668-3.9285-0.34514-5.8983 5.968-1.6348 6.7598 9.1564 2.213 18.942 1.3703 28.18 0.0508 3.7458-0.55832 2.853-6.2728-0.62891-6.6484-3.2014-0.43015-6.4381-0.60024-9.6855-0.62891zm-25.062 9.8047c-18.036 11.42-23.92 38.7-16.667 59.07a79.357 79.357 0 0 0 38.477 9.9785 79.357 79.357 0 0 0 37.262 -9.3594c7.4854-20.508 1.8022-48.262-16.549-59.623-14.019 2.0607-28.576 2.8122-42.523-0.0606zm22.982 11.516c2.2637 0.00081 4.3806 0.51329 5.3398 2.8887-0.0203 3.5732 1.2797 9.2183-2.6387 11.441-3.0149-0.26393-9.1563 1.8964-9.9785-2.834-0.23348-3.5123-2.306-9.3576 2.2012-11.205 1.4656 0.0179 3.3155-0.29178 5.0762-0.29101zm1.0977 26.385c1.2413 0.0353 2.362 0.37641 3.1348 1.4766 1.6242 3.1773 1.4116 6.9947 1.1172 10.477-3.4209 5.2076-15.957 3.492-13.236-4.6797-0.01024-2.5175 0.28409-5.7452 2.832-7.0039 1.6813 0.46314 4.0834-0.32823 6.1523-0.26953z" fill="#7cd3ff"/>
</g>
</svg>
