<?xml version="1.0" encoding="UTF-8" standalone="no"?>
<svg
   xmlns:osb="http://www.openswatchbook.org/uri/2009/osb"
   xmlns:dc="http://purl.org/dc/elements/1.1/"
   xmlns:cc="http://creativecommons.org/ns#"
   xmlns:rdf="http://www.w3.org/1999/02/22-rdf-syntax-ns#"
   xmlns:svg="http://www.w3.org/2000/svg"
   xmlns="http://www.w3.org/2000/svg"
   width="531.45929"
   height="622.93134"
   id="svg2"
   version="1.1">
  <title
     id="title850">Rudolph Christmas Tree Simple</title>
  <defs
     id="defs4">
    <linearGradient
       id="linearGradient5390"
       osb:paint="solid">
      <stop
         style="stop-color:#a9c88f;stop-opacity:1;"
         offset="0"
         id="stop5392" />
    </linearGradient>
  </defs>
  <metadata
     id="metadata7">
    <rdf:RDF>
      <cc:Work
         rdf:about="">
        <dc:format>image/svg+xml</dc:format>
        <dc:type
           rdf:resource="http://purl.org/dc/dcmitype/StillImage" />
        <dc:title>Rudolph Christmas Tree Simple</dc:title>
        <cc:license
           rdf:resource="http://creativecommons.org/publicdomain/zero/1.0/" />
        <dc:subject>
          <rdf:Bag>
            <rdf:li>Christmas</rdf:li>
            <rdf:li>tree</rdf:li>
            <rdf:li>snow</rdf:li>
            <rdf:li>evergreen</rdf:li>
            <rdf:li>paper</rdf:li>
            <rdf:li>cut-out</rdf:li>
            <rdf:li>Christmas tree</rdf:li>
            <rdf:li>holiday</rdf:li>
            <rdf:li>pine tree</rdf:li>
            <rdf:li>festive</rdf:li>
          </rdf:Bag>
        </dc:subject>
        <dc:contributor>
          <cc:Agent>
            <dc:title>https://openclipart.org/detail/310227/rudolph-christmas-tree-simple</dc:title>
          </cc:Agent>
        </dc:contributor>
        <dc:creator>
          <cc:Agent>
            <dc:title>cyanidecupcake</dc:title>
          </cc:Agent>
        </dc:creator>
        <dc:publisher>
          <cc:Agent>
            <dc:title>Openclipart.org</dc:title>
          </cc:Agent>
        </dc:publisher>
        <dc:identifier>https://openclipart.org/</dc:identifier>
        <dc:source>https://openclipart.org/user-detail/cyanidecupcake</dc:source>
      </cc:Work>
      <cc:License
         rdf:about="http://creativecommons.org/publicdomain/zero/1.0/">
        <cc:permits
           rdf:resource="http://creativecommons.org/ns#Reproduction" />
        <cc:permits
           rdf:resource="http://creativecommons.org/ns#Distribution" />
        <cc:permits
           rdf:resource="http://creativecommons.org/ns#DerivativeWorks" />
      </cc:License>
    </rdf:RDF>
  </metadata>
  <g
     id="layer1"
     transform="translate(-801.93596,332.27923)">
    <title
       id="title852">Rudolph Christmas Tree Simple  --  by cyanidecupcake</title>
    <path
       id="path3759"
       d="M 939.2743,-11.115101 C 958.70749,-0.25537458 834.66471,177.60504 808.02445,229.0708 c -8.38735,16.20336 33.88282,14.4805 51.88948,17.42281 20.08247,3.2815 40.92952,-3.06335 61.04643,0 17.91121,2.72747 33.91805,13.88084 51.88948,16.17832 25.76487,3.29381 51.98666,-6.29943 77.83416,-3.73346 20.355,2.02071 39.2368,12.29032 59.5203,14.93384 30.7745,4.01078 62.1327,-0.86171 93.0959,1.24448 27.103,1.84361 53.9153,13.20054 80.8864,9.9559 15.1218,-1.81916 52.0097,-4.09886 42.7325,-16.17833 -76.3295,-99.38657 -144.9217,-280.093073 -140.4067,-280.009461 z"
       style="fill:#5a7f62;fill-opacity:1;stroke:none" />
    <path
       style="opacity:0.35400008;fill:#000000;fill-opacity:1;stroke:none"
       d="m 989.73519,101.19437 c -55.48683,-4.790763 -72.60982,-12.655533 -94.96846,-1.15102 -19.90124,10.24007 -8.06788,25.56992 -63.55478,80.00128 -16.56219,14.42498 -22.84852,40.79384 -12.70935,47.69014 30.46449,3.64852 56.70339,-9.76979 78.92851,-22.41205 14.39581,-5.18934 21.9038,4.82615 32.06416,9.38569 17.80671,7.9909 25.71652,32.21872 49.64375,31.04672 35.38948,-1.01044 65.80898,-15.80018 92.16418,-31.32118 7.0679,13.47029 21.146,40.17765 43.0924,27.6479 11.5104,-5.26324 29.7932,4.86232 43.6363,-36.873 5.9286,-17.87403 32.9513,52.19898 68.6315,0.0757 13.1448,-19.20257 35.5284,12.6309 58.5096,-6.67512 22.9811,-19.30602 -21.9973,-41.57994 -35.9473,-82.93408 -6.3481,-16.712893 -245.7779,0.0757 -259.49051,-14.481 z"
       id="path3854-1-0" />
    <path
       style="fill:#ececec;fill-opacity:1;stroke:none"
       d="m 985.52234,98.242027 c -55.48683,-4.79076 -72.60982,-12.65553 -94.96846,-1.15102 -19.90124,10.240073 -8.06788,25.569923 -63.55478,80.001283 -16.56219,14.42498 -22.84853,40.79384 -12.70936,47.69014 30.4645,3.64852 56.7034,-9.76979 78.92852,-22.41205 14.39581,-5.18934 21.9038,4.82615 32.06416,9.38569 17.80671,7.9909 25.71652,32.21872 49.64375,31.04672 35.38943,-1.01044 65.80893,-15.80018 92.16423,-31.32118 7.0678,13.47029 21.146,40.17765 43.0924,27.6479 11.5104,-5.26324 29.7932,4.86232 43.6362,-36.873 5.9286,-17.87403 32.9514,52.19898 68.6315,0.0757 13.1448,-19.20257 35.5284,12.6309 58.5096,-6.67512 22.9812,-19.30602 -21.9973,-41.57994 -35.9473,-82.93408 -6.348,-16.712893 -245.77786,0.0757 -259.49046,-14.481003 z"
       id="path3854-1" />
    <path
       style="fill:#000000;fill-opacity:0.23036649;stroke:none"
       d="m 949.59001,-119.5341 -73.4465,124.8725494 26.60767,0.680579 0.46738,51.3428486 -21.13256,40.53526 c 9.4783,14.809353 27.40595,7.658643 49.37608,-9.85478 10.2247,44.079453 58.7166,25.087773 78.48752,16.442783 20.0008,10.46157 32.5437,35.75979 76.9185,-4.24681 50.3524,-45.395593 25.2432,-18.147453 31.6822,10.29034 23.0323,10.28083 49.5935,47.33956 63.3643,-12.713203 18.4886,18.804063 33.9112,51.222583 62.6299,24.881953 l -19.4967,-37.404603 -2.6708,-17.09613 48.2076,-1.33394 -49.8769,-121.41521 -55.619,-8.575289 -16.8259,-56.406348 z"
       id="path3992" />
    <path
       style="fill:#5a7f62;fill-opacity:1;stroke:none"
       d="M 946.56832,-115.27638 828.76038,71.528817 c -4.70223,8.42202 -27.28331,33.900863 43.40649,9.47365 7.03579,28.836793 28.36521,23.083643 55.78413,2.69509 10.50673,42.252333 60.31999,24.033303 80.6363,15.74664 20.5523,10.027943 33.4484,34.292073 79.0472,-4.05624 51.7412,-43.51392 25.9431,-17.38869 32.5598,9.870333 23.6676,9.85468 50.9591,45.36758 65.1097,-12.195963 19.4913,18.492103 35.6552,50.728363 66.6697,21.778513 19.9841,13.01809 39.3992,24.36214 46.4923,-1.36116 l -73.3162,-166.469515 -57.1406,-8.221389 -17.2947,-54.065156 z"
       id="path3811" />
    <path
       style="fill:#000000;fill-opacity:0.22745098;stroke:none"
       d="m 1136.1477,-78.297748 c -41.3123,8.855941 -52.9948,5.681859 -94.3071,14.537788 -26.1738,25.505508 -38.0845,-41.93242 -54.33124,-12.000456 -1.85472,4.685107 -46.81861,-7.692692 -37.81919,-5.497949 -11.18719,19.057018 -23.70218,37.800696 -34.05247,57.059705 8.52622,2.663713 38.70532,-15.413115 28.47721,4.301257 -12.57213,23.4099164 -36.77191,42.66525 -45.26975,67.48617 -6.04301,7.80855 -4.5923,19.46739 10.98359,12.25041 13.05495,-5.96363 45.30716,-6.2129 30.98107,10.18146 -7.01537,15.18629 -19.8972,29.95152 -18.52855,46.497123 9.37521,16.63956 35.5039,3.72262 50.11054,-1.82395 32.56069,-13.19237 70.98579,-27.456423 108.60059,-17.341143 8.0082,19.193533 37.5186,17.881133 55.8528,7.513593 12.1252,-8.104593 35.9673,-7.660933 29.4787,8.38473 11.2733,14.3956 40.6303,-1.32576 53.8162,-9.14698 11.2937,-12.912553 47.2875,-13.650193 38.9267,-31.987193 -6.3542,-15.08746 -22.1456,-26.46846 -31.7155,-40.3447 -1.0253,-14.102638 13.9598,-3.19985 20.8988,-2.61342 6.8542,-12.337291 -4.54,-27.7292816 -12.4191,-39.555224 -4.052,-6.41027 -6.9831,-23.067418 4.7406,-11.297604 1.1234,0.790351 2.2614,1.473848 3.3719,2.068959 l -8.6132,-19.872893 8.5465,-5.009058 c -7.8092,-11.870519 -17.9056,-23.035317 -23.7367,-35.580647 -26.7561,-41.67203 -57.2362,43.462042 -83.9924,1.790022 z"
       id="path4000" />
    <path
       style="fill:#ececec;fill-opacity:1;stroke:none"
       d="m 948.28174,-80.915258 c -11.1924,18.573997 -23.71944,36.834157 -34.07455,55.605023 8.53019,2.596199 38.70844,-15.013907 28.47557,4.200779 -12.57798,22.8165654 -36.77829,41.590523 -45.2801,65.782323 -6.04581,7.61064 -4.59971,18.97553 10.98344,11.94147 13.06103,-5.81247 45.33763,-6.0696 31.00488,9.90923 -7.01864,14.80137 -19.90398,29.21287 -18.53469,45.339103 9.37958,16.2178 35.49403,3.6254 50.10749,-1.78059 32.57582,-12.857993 71.02542,-26.779153 108.65782,-16.920263 8.0119,18.707053 37.5445,17.449673 55.8872,7.344913 12.1309,-7.899163 35.9862,-7.470463 29.4946,8.1685 11.2784,14.03073 40.648,-1.30123 53.8402,-8.924203 11.2989,-12.58527 47.3087,-13.29676 38.9439,-31.16899 -6.3572,-14.70505 -22.159,-25.81171 -31.7333,-39.33624 -1.0258,-13.745197 13.971,-3.11572 20.9134,-2.54415 6.8573,-12.024589 -4.5391,-27.01463458 -12.4218,-38.540835 -4.0539,-6.247794 -6.978,-22.503459 4.7513,-11.031967 9.2541,6.343341 19.114,6.515679 12.4617,-4.110537 -5.7585,-19.164892 -24.1772,-34.446788 -32.9244,-52.78055 l -76.023,3.100219 c -41.3315,8.63148 -38.8181,-9.577648 -80.1496,-0.946178 -26.186,24.859036 -101.04253,-47.857469 -117.29687,-18.684168 -1.85559,4.566353 -6.08679,13.238 2.91681,15.377111 z"
       id="path3981" />
    <path
       style="fill:#000000;fill-opacity:0.27225132;stroke:none"
       d="m 1059.2255,-297.90013 -98.68528,107.26446 -22.06734,69.34187 -1.20185,20.58044 -15.69084,25.558267 c 2.1064,-0.821286 4.22806,-1.643991 6.40987,-2.51568 -7.71085,54.548712 30.52622,21.254052 57.9893,8.564026 17.30124,28.4745 41.09084,41.537122 86.96734,2.435395 44.6557,31.681535 57.0589,19.462874 77.8533,4.897552 l 41.1968,-8.564026 29.0113,22.025613 14.0551,-6.396262 c -5.1055,-12.058484 -20.119,-20.422378 -24.4363,-32.480872 l -28.946,-31.802873 -0.033,-5.62013 -122.4221,-173.28778 z"
       id="path3815" />
    <path
       style="fill:#5a7f62;fill-opacity:1;stroke:none"
       d="M 1167.2587,-157.26538 1064.033,-303.97089 858.01558,-76.249307 c -21.09343,28.013815 11.11252,22.145717 74.78189,-3.72957 -7.71086,55.487436 30.52621,21.619809 57.9893,8.711405 17.30123,28.964508 41.12413,42.279151 87.00073,2.50453 38.7721,42.694301 57.0254,19.798123 77.8199,4.981834 l 41.1968,-8.711405 29.0114,22.377422 10.1824,-9.473653 -9.6148,-13.69324 -38.7719,-54.579976"
       id="path3755" />
    <path
       style="opacity:0.23600003;fill:#000000;fill-opacity:1;stroke:none"
       d="m 1122.2645,-130.58741 c 42.7326,17.45556 52.9914,-6.65465 114.0262,78.580803 9.3439,11.08183 -12.3301,3.19606 -19.1218,7.14725 -19.2434,0.21827 -34.6894,-10.89816 -47.6856,-21.185479 -8.6224,-4.615979 -20.9229,-7.774959 -20.6317,4.01516 -4.3315,11.243259 -18.2295,20.074489 -33.0684,17.489849 -21.9968,-3.32929 -39.956,-15.69367 -55.3313,-28.254078 -5.3246,8.667699 -15.9408,20.271298 -26.3457,18.035028 -8.1664,-1.75516 -7.2515,2.36657 -13.0359,-21.401011 -3.0467,-12.518346 -38.16753,23.773621 -56.86328,-14.467088 -6.88764,-14.088144 -31.45499,-0.46271 -44.46864,-15.355124 -13.01364,-14.89241 17.47117,-38.24316 35.11752,-46.10688 25.20239,-11.23091 47.1451,-13.57588 82.5002,6.73477 40.0224,22.99188 58.314,3.90341 84.9084,14.7668 z"
       id="path3854-9" />
    <path
       style="fill:#ececec;fill-opacity:1;stroke:none"
       d="m 1122.7115,-136.32501 c 42.7326,17.45556 52.9914,-6.65466 114.0262,78.580795 9.3439,11.081831 -12.3301,3.196061 -19.1218,7.147251 -19.2434,0.21827 -34.6894,-10.89816 -47.6856,-21.18548 -8.6224,-4.61598 -20.9229,-7.77496 -20.6317,4.01516 -4.3315,11.24326 -18.2295,20.07449 -33.0684,17.48985 -21.9968,-3.32929 -39.956,-15.69367 -55.3313,-28.25408 -5.3246,8.6677 -15.9408,20.271296 -26.3457,18.035033 -8.1664,-1.755166 -7.2515,2.366565 -13.0359,-21.401016 -3.0467,-12.518345 -38.16753,23.773623 -56.86328,-14.467087 -6.88764,-14.088136 -31.45499,-0.46271 -44.46864,-15.355116 -13.01364,-14.89241 17.47117,-38.24317 35.11752,-46.10689 25.20239,-11.2309 47.1451,-13.57587 82.5002,6.73477 40.0224,22.99189 58.314,3.90341 84.9084,14.76681 z"
       id="path3854" />
    <path
       style="opacity:0.18600003;fill:#000000;fill-opacity:1;stroke:none"
       d="m 1055.4072,-322.12222 c 36.2688,50.30507 82.3873,114.16384 118.6561,164.46892 5.4858,6.75011 -7.239,1.94677 -11.2264,4.3535 -11.2977,0.13295 -20.3661,-6.63824 -27.9961,-12.90441 -5.0622,-2.81167 -12.2838,-4.73584 -12.1129,2.4457 -2.543,6.84844 -10.7025,12.22768 -19.4144,10.65334 -12.9143,-2.02792 -30.3217,-28.34575 -32.4849,-17.21 -1.2329,6.34665 -8.0386,12.29326 -15.5544,9.07107 -4.6051,-1.97437 -3.5254,-9.16613 -7.5665,-11.96698 -9.12,-6.32097 -22.4081,15.32652 -33.3843,-7.96649 -4.0438,-8.58131 -14.35269,-10.92941 -26.10751,-9.35304 -38.1401,5.11475 -13.62735,-28.31134 15.42501,-55.2402 -3.77234,-7.50612 43.4381,-71.26276 51.7663,-76.35141 z"
       id="path3854-0-7" />
    <path
       style="fill:#ececec;fill-opacity:1;stroke:none"
       d="m 1053.1109,-327.27923 c 36.2688,50.30507 82.3873,114.16384 118.6561,164.46892 5.4858,6.75011 -7.239,1.94677 -11.2264,4.3535 -11.2977,0.13295 -20.3661,-6.63824 -27.9961,-12.90441 -5.0622,-2.81167 -12.2838,-4.73584 -12.1129,2.4457 -2.543,6.84844 -10.7025,12.22768 -19.4144,10.65334 -12.9143,-2.02792 -30.3217,-28.34575 -32.4849,-17.21 -1.2328,6.34665 -8.0386,12.29326 -15.5543,9.07107 -4.6052,-1.97437 -3.5255,-9.16613 -7.5666,-11.96698 -9.12,-6.32097 -22.4081,15.32652 -33.3843,-7.96649 -4.0438,-8.58131 -14.35268,-10.92941 -26.1075,-9.35304 -38.1401,5.11475 -13.62735,-28.31134 15.425,-55.2402 -3.77233,-7.50612 43.4381,-71.26276 51.7663,-76.35141 z"
       id="path3854-0" />
  </g>
</svg>
